<?xml version="1.0" encoding="iso-8859-1"?>
<!-- Uploaded to: SVG Repo, www.svgrepo.com, Generator: SVG Repo Mixer Tools -->
<svg xmlns="http://www.w3.org/2000/svg" xmlns:xlink="http://www.w3.org/1999/xlink" version="1.1" id="Layer_1"  viewBox="0 0 442.479 442.479" xml:space="preserve" width="512" height="512">
<g>
	<path style="fill:#E6E6E6;" d="M403.453,321.858v15.45c0,16.32-13.23,29.55-29.55,29.55H68.573c-16.32,0-29.54-13.23-29.54-29.55   v-15.45h74.22h252.86H403.453z"/>
	<path style="fill:#CCCCCC;" d="M110.033,337.309v-15.45h-71v15.45c0,16.32,13.22,29.55,29.54,29.55h71   C123.253,366.859,110.033,353.629,110.033,337.309z"/>
	<path style="fill:#E6E6E6;" d="M110.923,173.148l1.06,0.06c-5.18,5.96-9.11,12.89-11.44,20.66c-2.27,7.56-2.83,15.3-1.89,22.92   l-0.84,0.09l-32.36-9.7c0.3-0.76,0.57-1.53,0.81-2.33c2.3-7.67,1.17-15.56-2.5-22.01c6.61-3.37,11.89-9.33,14.2-17   c0.24-0.79,0.44-1.59,0.6-2.39L110.923,173.148z"/>
	<path style="fill:#E6E6E6;" d="M78.563,163.448c-0.16,0.8-0.36,1.6-0.6,2.39c-2.31,7.67-7.59,13.63-14.2,17   c3.67,6.45,4.8,14.34,2.5,22.01c-0.24,0.8-0.51,1.57-0.81,2.33c-3.36,8.49-10.53,14.55-18.9,16.78   c-4.87,1.32-10.16,1.33-15.34-0.23c-14.9-4.46-23.35-20.15-18.89-35.05c2.3-7.67,7.59-13.63,14.2-17   c-3.67-6.45-4.81-14.33-2.51-22.01c4.47-14.89,20.16-23.35,35.06-18.88c3,0.9,5.74,2.25,8.16,3.97   C76.203,141.088,80.873,152.308,78.563,163.448z"/>
	<path style="fill:#CCCCCC;" d="M43.323,188.678c2.3-7.67,7.59-13.63,14.2-17c-3.67-6.45-4.81-14.33-2.51-22.01   c1.975-6.578,6.141-11.897,11.459-15.405c-2.232-1.477-4.703-2.666-7.399-3.475c-14.9-4.47-30.59,3.99-35.06,18.88   c-2.3,7.68-1.16,15.56,2.51,22.01c-6.61,3.37-11.9,9.33-14.2,17c-4.46,14.9,3.99,30.59,18.89,35.05   c5.18,1.56,10.47,1.55,15.34,0.23c2.929-0.781,5.706-2.04,8.23-3.698C44.675,213.598,39.672,200.875,43.323,188.678z"/>
	<path style="fill:#F7B239;" d="M198.763,153.398c43.62,13.07,70.38,52.39,59.76,87.82s-54.59,53.55-98.22,40.47   c-34.31-10.29-58.19-36.81-61.65-64.9c-0.94-7.62-0.38-15.36,1.89-22.92c2.33-7.77,6.26-14.7,11.44-20.66   C130.423,151.988,164.703,143.188,198.763,153.398z"/>
	<path style="fill:#E09B2D;" d="M157.653,216.788c-0.94-7.62-0.38-15.36,1.89-22.92c2.33-7.77,6.26-14.7,11.44-20.66   c7.514-8.646,17.658-15.229,29.345-19.306c-0.523-0.166-1.037-0.346-1.565-0.504c-34.06-10.21-68.34-1.41-86.78,19.81   c-5.18,5.96-9.11,12.89-11.44,20.66c-2.27,7.56-2.83,15.3-1.89,22.92c3.46,28.09,27.34,54.61,61.65,64.9   c20.175,6.048,40.415,5.414,57.404-0.507C184.258,270.556,161.058,244.439,157.653,216.788z"/>
	<path style="fill:#F7B239;" d="M410.503,238.978c0.18,34.54-17.52,65.1-44.39,82.88h-252.86c-35.71-19.77-61.23-55.69-66.7-97.89   v-0.01c8.37-2.23,15.54-8.29,18.9-16.78l32.36,9.7l0.84-0.09c2.74,22.26,18.31,43.54,41.73,56.52c6.13,3.41,12.8,6.25,19.92,8.38   c43.63,13.08,87.6-5.04,98.22-40.47c10.62-35.43-16.14-74.75-59.76-87.82c-23.38-7.01-46.86-5.06-65.26,3.71   c-8.4,4.01-15.74,9.44-21.52,16.1l-1.06-0.06l-32.36-9.7c2.31-11.14-2.36-22.36-11.33-28.69c23.77-35.86,64.63-59.48,110.54-59.13   c8.17,0.06,16.16,0.87,23.91,2.37c20.64,3.95,39.56,12.76,55.54,25.17c27.04,21.02,58.35,35.69,91.29,45.06   c1.9,0.54,3.53,1.12,4.86,1.73C386.963,165.569,410.303,199.538,410.503,238.978z"/>
	<path style="fill:#E09B2D;" d="M170.243,321.508c0.1,0.12,0.2,0.23,0.3,0.35h-57.29c-35.71-19.77-61.23-55.69-66.7-97.89v-0.01   c8.37-2.23,15.54-8.29,18.9-16.78l32.36,9.7l0.84-0.09c2.74,22.26,18.31,43.54,41.73,56.52   C146.563,289.198,156.043,305.359,170.243,321.508z"/>
	<path style="fill:#E09B2D;" d="M67.233,134.758c23.77-35.86,64.63-59.48,110.54-59.13c8.17,0.06,16.16,0.87,23.91,2.37   c-12.06,7.18-62.85,39.59-68.18,79.11c-8.4,4.01-15.74,9.44-21.52,16.1l-1.06-0.06l-32.36-9.7   C80.873,152.309,76.203,141.089,67.233,134.758z"/>
	<path style="fill:#FFFFFF;" d="M343.77,178.361c-0.937,0-1.888-0.176-2.809-0.549c-0.124-0.046-0.377-0.13-0.78-0.244   c-38.664-10.999-72.872-27.928-101.677-50.32c-12.046-9.355-25.609-15.703-40.309-18.866c-4.05-0.871-6.626-4.86-5.755-8.909   c0.871-4.05,4.859-6.632,8.909-5.755c16.92,3.64,32.517,10.936,46.358,21.685c27.282,21.208,59.773,37.268,96.575,47.736   c1.177,0.334,1.927,0.612,2.349,0.786c3.83,1.579,5.654,5.963,4.076,9.792C349.513,176.612,346.717,178.361,343.77,178.361z"/>
	<path style="fill:#FFFFFF;" d="M353.427,310.179c-2.433,0-4.818-1.182-6.261-3.362c-2.286-3.454-1.339-8.107,2.116-10.393   c19.357-12.809,30.841-34.224,30.721-57.286c-0.017-3.288-0.277-6.605-0.776-9.861c-0.627-4.094,2.184-7.921,6.279-8.548   c4.089-0.633,7.921,2.183,8.548,6.279c0.609,3.979,0.929,8.035,0.949,12.054c0.146,28.139-13.851,54.26-37.444,69.871   C356.286,309.776,354.848,310.179,353.427,310.179z"/>
	<path style="fill:#FFFFFF;" d="M214.831,265.1c-2.844,0-5.564-1.626-6.825-4.382c-1.723-3.767-0.066-8.217,3.701-9.94   c9.05-4.14,15.3-10.645,17.6-18.316c2.447-8.165,0.48-17.533-5.54-26.379c-3.629-5.333-8.374-10.068-14.102-14.073   c-3.395-2.373-4.223-7.049-1.849-10.444c2.373-3.396,7.049-4.223,10.444-1.849c7.226,5.052,13.251,11.083,17.909,17.928   c8.61,12.653,11.276,26.548,7.506,39.125c-3.557,11.868-12.694,21.688-25.729,27.65C216.936,264.881,215.875,265.1,214.831,265.1z"/>
	<path style="fill:#FFFFFF;" d="M381.252,354.009c-0.353,0-0.71-0.025-1.07-0.076c-4.101-0.586-6.95-4.385-6.364-8.485l1-7   c0.586-4.1,4.384-6.949,8.485-6.364c4.101,0.586,6.95,4.385,6.364,8.485l-1,7C388.133,351.31,384.924,354.009,381.252,354.009z"/>
	<circle style="fill:#FFFFFF;" cx="363.995" cy="184.8" r="7.5"/>
	<g>
		<path style="fill:#333333;" d="M434.979,314.359h-31.528h-16.397c19.798-19.852,31.098-46.81,30.949-75.42    c-0.208-40.93-24.336-78.527-61.501-95.798c-1.674-0.769-3.672-1.485-5.937-2.128c-33.945-9.656-63.801-24.381-88.742-43.77    c-24.236-18.823-53.281-28.891-83.993-29.117C133.128,67.8,91.443,88.914,64.954,124.953c-1.21-0.513-2.452-0.969-3.73-1.352    c-9.122-2.735-18.764-1.752-27.149,2.764c-8.385,4.518-14.508,12.03-17.243,21.153c-2.127,7.098-2.011,14.47,0.261,21.334    c-5.673,4.483-9.825,10.575-11.953,17.673c-5.645,18.833,5.084,38.747,23.917,44.392c3.401,1.02,6.838,1.505,10.219,1.505    c0.343,0,0.684-0.011,1.026-0.021c6.007,32.207,23.418,61.3,48.614,81.957H39.028H7.5c-4.142,0-7.5,3.358-7.5,7.5    s3.358,7.5,7.5,7.5h24.028v7.95c0,20.428,16.619,37.047,37.047,37.047h305.329c20.428,0,37.047-16.62,37.047-37.047v-7.95h24.028    c4.142,0,7.5-3.358,7.5-7.5S439.121,314.359,434.979,314.359z M107.724,196.018c7.298-24.346,32.893-39.371,62.477-39.371    c8.582,0,17.502,1.265,26.406,3.934c19.456,5.832,35.855,17.397,46.178,32.566c9.993,14.684,13.032,30.992,8.557,45.92    c-4.475,14.928-15.983,26.875-32.405,33.642c-16.964,6.989-37.021,7.627-56.478,1.795    C122.864,262.635,98.31,227.426,107.724,196.018z M93.355,191.711c-1.508,5.031-2.343,10.132-2.561,15.232l-16.247-4.87    c0.848-5.532,0.391-11.12-1.359-16.408c4.369-3.453,7.824-7.867,10.159-12.953l16.252,4.871    C96.976,181.964,94.864,186.68,93.355,191.711z M19.509,190.833c1.634-5.452,5.335-9.881,10.419-12.471    c1.826-0.93,3.192-2.567,3.78-4.53s0.348-4.082-0.666-5.862c-2.822-4.959-3.476-10.693-1.842-16.145    c1.584-5.285,5.132-9.637,9.989-12.254c3.054-1.646,6.395-2.481,9.77-2.481c1.992,0,3.996,0.292,5.958,0.879    c5.285,1.584,9.637,5.132,12.254,9.989c2.617,4.857,3.186,10.442,1.602,15.728c-1.634,5.452-5.334,9.88-10.419,12.47    c-1.826,0.93-3.192,2.567-3.78,4.53s-0.348,4.081,0.665,5.862c2.822,4.959,3.476,10.694,1.842,16.146    c-3.271,10.909-14.807,17.124-25.717,13.855C22.455,213.279,16.239,201.742,19.509,190.833z M54.898,228.798    c5.758-2.807,10.756-7.144,14.33-12.659l22.897,6.863c6.003,28.929,31.001,55.372,66.027,65.87    c10.203,3.059,20.58,4.581,30.742,4.581c12.49,0,24.652-2.3,35.756-6.875c20.681-8.521,35.262-23.864,41.059-43.204    c5.797-19.34,2.06-40.174-10.524-58.666c-12.254-18.007-31.528-31.678-54.272-38.495c-35.022-10.5-70.425-2.155-91.352,18.699    l-22.911-6.867c0.057-5.938-1.378-11.828-4.273-17.2c-1.432-2.658-3.168-5.087-5.158-7.255    c23.648-32.012,60.717-50.786,100.498-50.462c27.391,0.201,53.292,9.179,74.902,25.961c26.464,20.572,58.037,36.167,93.844,46.354    c1.509,0.428,2.815,0.889,3.748,1.316c31.891,14.82,52.613,47.108,52.791,82.258c0.157,30.118-14.464,58.114-39.212,75.343    H115.252C83.494,296.136,61.304,264.577,54.898,228.798z M395.951,337.309c0,12.157-9.891,22.047-22.047,22.047H68.575    c-12.157,0-22.047-9.891-22.047-22.047v-7.95h349.423V337.309z"/>
		<circle style="fill:#333333;" cx="343.769" cy="227.558" r="7.5"/>
		<circle style="fill:#333333;" cx="191.103" cy="182.892" r="7.5"/>
		<circle style="fill:#333333;" cx="188.993" cy="203.368" r="7.5"/>
		<circle style="fill:#333333;" cx="164.993" cy="191.368" r="7.5"/>
		<circle style="fill:#333333;" cx="368.262" cy="215.215" r="7.5"/>
		<circle style="fill:#333333;" cx="349.696" cy="203.48" r="7.5"/>
	</g>
</g>















</svg>